<?xml version="1.0" encoding="UTF-8" standalone="no"?>
<!DOCTYPE svg PUBLIC "-//W3C//DTD SVG 1.1//EN" "http://www.w3.org/Graphics/SVG/1.1/DTD/svg11.dtd">
<svg width="100%" height="100%" viewBox="0 0 2340 1560" version="1.1" xmlns="http://www.w3.org/2000/svg" xmlns:xlink="http://www.w3.org/1999/xlink" xml:space="preserve" xmlns:serif="http://www.serif.com/" style="fill-rule:evenodd;clip-rule:evenodd;stroke-linejoin:round;stroke-miterlimit:2;">
    <g transform="matrix(20,0,0,20,1.13687e-12,4.54747e-13)">
        <g transform="matrix(1,0,0,1,0,166)">
            <rect x="0" y="-166" width="117" height="78" style="fill:url(#_Radial1);"/>
        </g>
        <path d="M97.573,78L38.544,78C38.764,76.578 39.342,75.271 40.415,74.578C41.495,73.88 42.992,73.882 44.23,73.817C50.962,73.462 58.006,76.314 64.607,74.709C70.099,73.373 75.821,68.964 71.728,62.825C68.723,58.316 62.127,57.7 57.198,58.017C45.799,58.749 27.801,65.89 21.269,51.943C16.001,40.695 20.216,23.163 33.334,19.512C41.251,17.308 50.53,19.969 58.1,16.1C63.187,13.5 64.349,6.502 63.916,1.283C63.881,0.854 63.83,0.426 63.763,-0L117,0L117,17.188C112.828,19.274 107.68,20.157 102.734,20.534C97.392,20.942 89.585,21.208 87.555,27.386C84.763,35.881 95.694,40.582 100.892,44.513C108.445,50.225 109.74,59.722 105.74,68.029C103.786,72.087 100.92,75.303 97.573,78Z" style="fill:url(#_Linear2);"/>
        <path d="M46.88,0C47.201,1.248 47.439,2.516 47.457,3.887C47.544,10.524 43.086,14.78 36.56,14.992C27.349,15.292 16.084,11.294 9.609,20.271C4.218,27.744 5.11,39.106 9.677,46.71C13.676,53.368 19.832,58.253 18.893,66.805C18.718,68.398 18.317,69.973 17.728,71.463C16.735,73.978 15.065,76.229 12.988,78L0,78L0,0L46.88,0Z" style="fill:url(#_Linear3);"/>
        <g transform="matrix(1,0,0,1,0,166)">
            <g>
                <g>
                    <path d="M36.77,-156.29L36.77,-155.41L36.54,-155.41L36.54,-155.79L36.05,-155.79L36.05,-155.41L35.82,-155.41L35.82,-156.29L36.05,-156.29L36.05,-155.94L36.54,-155.94L36.54,-156.29L36.77,-156.29Z" style="fill:white;fill-rule:nonzero;"/>
                    <path d="M38.02,-156.25C38.11,-156.21 38.18,-156.16 38.23,-156.09C38.28,-156.02 38.31,-155.94 38.31,-155.86C38.31,-155.77 38.28,-155.7 38.23,-155.63C38.18,-155.56 38.11,-155.51 38.02,-155.47C37.93,-155.43 37.83,-155.41 37.73,-155.41C37.62,-155.41 37.52,-155.43 37.44,-155.47C37.35,-155.51 37.28,-155.56 37.23,-155.63C37.18,-155.7 37.15,-155.78 37.15,-155.86C37.15,-155.95 37.18,-156.02 37.23,-156.09C37.28,-156.16 37.35,-156.21 37.44,-156.25C37.53,-156.29 37.63,-156.31 37.73,-156.31C37.83,-156.31 37.93,-156.29 38.02,-156.25ZM37.54,-156.11C37.49,-156.09 37.45,-156.05 37.42,-156.01C37.39,-155.97 37.38,-155.92 37.38,-155.86C37.38,-155.8 37.39,-155.75 37.42,-155.71C37.45,-155.67 37.49,-155.63 37.54,-155.61C37.59,-155.59 37.65,-155.58 37.72,-155.58C37.79,-155.58 37.85,-155.59 37.9,-155.61C37.95,-155.63 37.99,-155.67 38.02,-155.71C38.05,-155.75 38.06,-155.8 38.06,-155.86C38.06,-155.92 38.05,-155.97 38.02,-156.01C37.99,-156.05 37.95,-156.09 37.9,-156.11C37.85,-156.13 37.79,-156.14 37.72,-156.14C37.65,-156.14 37.6,-156.13 37.54,-156.11Z" style="fill:white;fill-rule:nonzero;"/>
                    <path d="M39.92,-156.28L39.92,-155.41L39.69,-155.41L39.69,-156.01L39.4,-155.41L39.2,-155.41L38.91,-156.01L38.91,-155.41L38.68,-155.41L38.68,-156.28L38.96,-156.28L39.31,-155.63L39.65,-156.28L39.92,-156.28Z" style="fill:white;fill-rule:nonzero;"/>
                    <path d="M40.56,-156.15L40.56,-155.92L40.97,-155.92L40.97,-155.79L40.56,-155.79L40.56,-155.55L41.02,-155.55L41.02,-155.41L40.33,-155.41L40.33,-156.29L41.02,-156.29L41.02,-156.15L40.56,-156.15Z" style="fill:white;fill-rule:nonzero;"/>
                </g>
                <g>
                    <path d="M43.86,-155.59L43.4,-155.59L43.32,-155.41L43.08,-155.41L43.51,-156.28L43.77,-156.28L44.19,-155.41L43.95,-155.41L43.86,-155.59ZM43.8,-155.73L43.63,-156.1L43.46,-155.73L43.8,-155.73Z" style="fill:white;fill-rule:nonzero;"/>
                    <path d="M45.32,-155.79C45.36,-155.75 45.38,-155.7 45.38,-155.65C45.38,-155.58 45.35,-155.52 45.28,-155.48C45.22,-155.44 45.12,-155.42 45,-155.42L44.5,-155.42L44.5,-156.3L45,-156.3C45.12,-156.3 45.21,-156.28 45.27,-156.24C45.33,-156.2 45.36,-156.15 45.36,-156.08C45.36,-156.03 45.34,-155.98 45.3,-155.95C45.26,-155.92 45.21,-155.89 45.15,-155.88C45.23,-155.86 45.28,-155.83 45.32,-155.79ZM44.74,-155.93L44.95,-155.93C45.01,-155.93 45.05,-155.94 45.08,-155.96C45.11,-155.98 45.12,-156.01 45.12,-156.04C45.12,-156.07 45.11,-156.1 45.08,-156.12C45.05,-156.14 45,-156.15 44.94,-156.15L44.74,-156.15L44.74,-155.93ZM45.1,-155.59C45.13,-155.61 45.15,-155.64 45.15,-155.68C45.15,-155.72 45.13,-155.75 45.1,-155.77C45.07,-155.79 45.02,-155.8 44.96,-155.8L44.74,-155.8L44.74,-155.56L44.96,-155.56C45.02,-155.56 45.07,-155.57 45.1,-155.59Z" style="fill:white;fill-rule:nonzero;"/>
                    <path d="M46.59,-156.25C46.68,-156.21 46.75,-156.16 46.8,-156.09C46.85,-156.02 46.88,-155.94 46.88,-155.86C46.88,-155.77 46.85,-155.7 46.8,-155.63C46.75,-155.56 46.68,-155.51 46.59,-155.47C46.5,-155.43 46.4,-155.41 46.3,-155.41C46.2,-155.41 46.09,-155.43 46.01,-155.47C45.92,-155.51 45.85,-155.56 45.8,-155.63C45.75,-155.7 45.72,-155.78 45.72,-155.86C45.72,-155.95 45.75,-156.02 45.8,-156.09C45.85,-156.16 45.92,-156.21 46.01,-156.25C46.1,-156.29 46.2,-156.31 46.3,-156.31C46.4,-156.31 46.5,-156.29 46.59,-156.25ZM46.11,-156.11C46.06,-156.09 46.02,-156.05 45.99,-156.01C45.96,-155.97 45.95,-155.92 45.95,-155.86C45.95,-155.8 45.96,-155.75 45.99,-155.71C46.02,-155.67 46.06,-155.63 46.11,-155.61C46.16,-155.59 46.22,-155.58 46.29,-155.58C46.36,-155.58 46.42,-155.59 46.47,-155.61C46.52,-155.63 46.56,-155.67 46.59,-155.71C46.62,-155.75 46.63,-155.8 46.63,-155.86C46.63,-155.92 46.62,-155.97 46.59,-156.01C46.56,-156.05 46.52,-156.09 46.47,-156.11C46.42,-156.13 46.36,-156.14 46.29,-156.14C46.23,-156.14 46.17,-156.13 46.11,-156.11Z" style="fill:white;fill-rule:nonzero;"/>
                    <path d="M47.47,-156.29L47.47,-155.78C47.47,-155.71 47.49,-155.66 47.53,-155.63C47.57,-155.6 47.63,-155.58 47.7,-155.58C47.77,-155.58 47.83,-155.6 47.87,-155.63C47.91,-155.66 47.93,-155.72 47.93,-155.78L47.93,-156.29L48.16,-156.29L48.16,-155.78C48.16,-155.7 48.14,-155.63 48.1,-155.57C48.06,-155.51 48,-155.47 47.93,-155.45C47.86,-155.42 47.78,-155.41 47.69,-155.41C47.55,-155.41 47.44,-155.44 47.36,-155.5C47.28,-155.56 47.24,-155.65 47.24,-155.78L47.24,-156.29L47.47,-156.29Z" style="fill:white;fill-rule:nonzero;"/>
                    <path d="M49.35,-156.29L49.35,-156.15L49.03,-156.15L49.03,-155.41L48.8,-155.41L48.8,-156.15L48.48,-156.15L48.48,-156.29L49.35,-156.29Z" style="fill:white;fill-rule:nonzero;"/>
                </g>
                <g>
                    <path d="M51.98,-155.53C51.95,-155.49 51.91,-155.46 51.85,-155.44C51.79,-155.42 51.72,-155.41 51.64,-155.41C51.56,-155.41 51.49,-155.42 51.42,-155.44C51.36,-155.46 51.3,-155.49 51.27,-155.53C51.23,-155.57 51.21,-155.62 51.2,-155.67L51.45,-155.67C51.46,-155.63 51.47,-155.61 51.51,-155.58C51.54,-155.56 51.59,-155.54 51.64,-155.54C51.69,-155.54 51.72,-155.55 51.75,-155.57C51.78,-155.59 51.79,-155.61 51.79,-155.65C51.79,-155.68 51.78,-155.7 51.76,-155.72C51.74,-155.74 51.71,-155.75 51.68,-155.76C51.65,-155.77 51.6,-155.78 51.55,-155.8C51.48,-155.82 51.42,-155.84 51.37,-155.85C51.32,-155.87 51.29,-155.89 51.25,-155.93C51.21,-155.97 51.2,-156.01 51.2,-156.06C51.2,-156.14 51.24,-156.19 51.31,-156.24C51.38,-156.28 51.48,-156.3 51.59,-156.3C51.71,-156.3 51.81,-156.28 51.88,-156.23C51.95,-156.19 51.99,-156.13 52,-156.05L51.75,-156.05C51.74,-156.08 51.73,-156.11 51.7,-156.13C51.67,-156.15 51.63,-156.16 51.58,-156.16C51.54,-156.16 51.5,-156.15 51.48,-156.13C51.45,-156.11 51.44,-156.09 51.44,-156.06C51.44,-156.03 51.45,-156.01 51.47,-156C51.49,-155.99 51.52,-155.97 51.55,-155.96C51.58,-155.95 51.62,-155.94 51.68,-155.92C51.75,-155.9 51.81,-155.88 51.86,-155.86C51.91,-155.84 51.95,-155.82 51.98,-155.78C52.01,-155.74 52.03,-155.7 52.03,-155.64C52.02,-155.61 52.01,-155.57 51.98,-155.53Z" style="fill:white;fill-rule:nonzero;"/>
                    <path d="M52.62,-156.15L52.62,-155.92L53.03,-155.92L53.03,-155.79L52.62,-155.79L52.62,-155.55L53.08,-155.55L53.08,-155.41L52.39,-155.41L52.39,-156.29L53.08,-156.29L53.08,-156.15L52.62,-156.15Z" style="fill:white;fill-rule:nonzero;"/>
                    <path d="M54.06,-155.42L53.79,-155.76L53.69,-155.76L53.69,-155.42L53.46,-155.42L53.46,-156.3L53.9,-156.3C54.03,-156.3 54.14,-156.28 54.21,-156.23C54.28,-156.18 54.32,-156.12 54.32,-156.03C54.32,-155.96 54.3,-155.91 54.25,-155.86C54.2,-155.82 54.13,-155.79 54.04,-155.77L54.33,-155.42L54.06,-155.42ZM53.68,-155.88L53.87,-155.88C54,-155.88 54.07,-155.92 54.07,-156.01C54.07,-156.05 54.05,-156.09 54.02,-156.11C53.99,-156.13 53.94,-156.15 53.87,-156.15L53.68,-156.15L53.68,-155.88Z" style="fill:white;fill-rule:nonzero;"/>
                    <path d="M54.82,-156.29L55.13,-155.6L55.44,-156.29L55.69,-156.29L55.28,-155.41L54.98,-155.41L54.57,-156.29L54.82,-156.29Z" style="fill:white;fill-rule:nonzero;"/>
                    <rect x="56.02" y="-156.29" width="0.23" height="0.88" style="fill:white;fill-rule:nonzero;"/>
                    <path d="M57.54,-156.22C57.64,-156.16 57.7,-156.09 57.73,-155.99L57.49,-155.99C57.46,-156.04 57.43,-156.07 57.37,-156.1C57.32,-156.13 57.25,-156.14 57.18,-156.14C57.12,-156.14 57.06,-156.13 57.01,-156.11C56.96,-156.09 56.92,-156.05 56.9,-156.01C56.87,-155.97 56.86,-155.92 56.86,-155.86C56.86,-155.8 56.87,-155.75 56.9,-155.71C56.93,-155.67 56.97,-155.63 57.01,-155.61C57.06,-155.59 57.11,-155.58 57.18,-155.58C57.25,-155.58 57.32,-155.59 57.37,-155.62C57.42,-155.65 57.46,-155.68 57.49,-155.73L57.73,-155.73C57.7,-155.63 57.64,-155.56 57.54,-155.5C57.45,-155.44 57.33,-155.42 57.18,-155.42C57.07,-155.42 56.97,-155.44 56.89,-155.48C56.81,-155.52 56.74,-155.57 56.69,-155.64C56.64,-155.71 56.62,-155.78 56.62,-155.87C56.62,-155.96 56.64,-156.03 56.69,-156.1C56.74,-156.17 56.8,-156.22 56.89,-156.26C56.97,-156.3 57.07,-156.32 57.18,-156.32C57.33,-156.3 57.45,-156.27 57.54,-156.22Z" style="fill:white;fill-rule:nonzero;"/>
                    <path d="M58.33,-156.15L58.33,-155.92L58.74,-155.92L58.74,-155.79L58.33,-155.79L58.33,-155.55L58.79,-155.55L58.79,-155.41L58.1,-155.41L58.1,-156.29L58.79,-156.29L58.79,-156.15L58.33,-156.15Z" style="fill:white;fill-rule:nonzero;"/>
                </g>
                <g>
                    <path d="M60.6,-155.76L60.6,-155.42L60.37,-155.42L60.37,-156.3L60.79,-156.3C60.93,-156.3 61.03,-156.28 61.1,-156.23C61.17,-156.18 61.2,-156.11 61.2,-156.03C61.2,-155.95 61.16,-155.88 61.09,-155.83C61.02,-155.78 60.92,-155.76 60.78,-155.76L60.6,-155.76ZM60.97,-156.02C60.97,-156.06 60.95,-156.1 60.92,-156.12C60.89,-156.14 60.84,-156.15 60.77,-156.15L60.6,-156.15L60.6,-155.88L60.77,-155.88C60.9,-155.88 60.97,-155.93 60.97,-156.02Z" style="fill:white;fill-rule:nonzero;"/>
                    <path d="M62.39,-156.25C62.48,-156.21 62.55,-156.16 62.6,-156.09C62.65,-156.02 62.68,-155.94 62.68,-155.86C62.68,-155.77 62.65,-155.7 62.6,-155.63C62.55,-155.56 62.48,-155.51 62.39,-155.47C62.3,-155.43 62.2,-155.41 62.1,-155.41C62,-155.41 61.89,-155.43 61.81,-155.47C61.72,-155.51 61.65,-155.56 61.6,-155.63C61.55,-155.7 61.52,-155.78 61.52,-155.86C61.52,-155.95 61.55,-156.02 61.6,-156.09C61.65,-156.16 61.72,-156.21 61.81,-156.25C61.9,-156.29 62,-156.31 62.1,-156.31C62.2,-156.31 62.31,-156.29 62.39,-156.25ZM61.92,-156.11C61.87,-156.09 61.83,-156.05 61.8,-156.01C61.77,-155.97 61.76,-155.92 61.76,-155.86C61.76,-155.8 61.77,-155.75 61.8,-155.71C61.83,-155.67 61.87,-155.63 61.92,-155.61C61.97,-155.59 62.03,-155.58 62.1,-155.58C62.17,-155.58 62.23,-155.59 62.28,-155.61C62.33,-155.63 62.37,-155.67 62.4,-155.71C62.43,-155.75 62.44,-155.8 62.44,-155.86C62.44,-155.92 62.43,-155.97 62.4,-156.01C62.37,-156.05 62.33,-156.09 62.28,-156.11C62.23,-156.13 62.17,-156.14 62.1,-156.14C62.03,-156.14 61.97,-156.13 61.92,-156.11Z" style="fill:white;fill-rule:nonzero;"/>
                    <path d="M63.66,-155.42L63.39,-155.76L63.29,-155.76L63.29,-155.42L63.06,-155.42L63.06,-156.3L63.5,-156.3C63.63,-156.3 63.74,-156.28 63.81,-156.23C63.88,-156.18 63.92,-156.12 63.92,-156.03C63.92,-155.96 63.9,-155.91 63.85,-155.86C63.8,-155.82 63.73,-155.79 63.64,-155.77L63.93,-155.42L63.66,-155.42ZM63.28,-155.88L63.47,-155.88C63.6,-155.88 63.67,-155.92 63.67,-156.01C63.67,-156.05 63.65,-156.09 63.62,-156.11C63.59,-156.13 63.54,-156.15 63.47,-156.15L63.28,-156.15L63.28,-155.88Z" style="fill:white;fill-rule:nonzero;"/>
                    <path d="M65.05,-156.29L65.05,-156.15L64.73,-156.15L64.73,-155.41L64.5,-155.41L64.5,-156.15L64.18,-156.15L64.18,-156.29L65.05,-156.29Z" style="fill:white;fill-rule:nonzero;"/>
                    <path d="M66.09,-156.3L66.09,-156.15L65.6,-156.15L65.6,-155.92L66,-155.92L66,-155.79L65.61,-155.79L65.61,-155.42L65.38,-155.42L65.38,-156.3L66.09,-156.3Z" style="fill:white;fill-rule:nonzero;"/>
                    <path d="M67.29,-156.25C67.38,-156.21 67.45,-156.16 67.5,-156.09C67.55,-156.02 67.58,-155.94 67.58,-155.86C67.58,-155.77 67.55,-155.7 67.5,-155.63C67.45,-155.56 67.38,-155.51 67.29,-155.47C67.2,-155.43 67.1,-155.41 67,-155.41C66.89,-155.41 66.79,-155.43 66.71,-155.47C66.62,-155.51 66.55,-155.56 66.5,-155.63C66.45,-155.7 66.42,-155.78 66.42,-155.86C66.42,-155.95 66.45,-156.02 66.5,-156.09C66.55,-156.16 66.62,-156.21 66.71,-156.25C66.8,-156.29 66.9,-156.31 67,-156.31C67.1,-156.31 67.2,-156.29 67.29,-156.25ZM66.81,-156.11C66.76,-156.09 66.72,-156.05 66.69,-156.01C66.66,-155.97 66.65,-155.92 66.65,-155.86C66.65,-155.8 66.66,-155.75 66.69,-155.71C66.72,-155.67 66.76,-155.63 66.81,-155.61C66.86,-155.59 66.92,-155.58 66.99,-155.58C67.06,-155.58 67.12,-155.59 67.17,-155.61C67.22,-155.63 67.26,-155.67 67.29,-155.71C67.32,-155.75 67.33,-155.8 67.33,-155.86C67.33,-155.92 67.32,-155.97 67.29,-156.01C67.26,-156.05 67.22,-156.09 67.17,-156.11C67.12,-156.13 67.06,-156.14 66.99,-156.14C66.93,-156.14 66.87,-156.13 66.81,-156.11Z" style="fill:white;fill-rule:nonzero;"/>
                    <path d="M68.18,-155.55L68.57,-155.55L68.57,-155.42L67.95,-155.42L67.95,-156.3L68.18,-156.3L68.18,-155.55Z" style="fill:white;fill-rule:nonzero;"/>
                    <rect x="68.9" y="-156.29" width="0.23" height="0.88" style="fill:white;fill-rule:nonzero;"/>
                    <path d="M70.38,-156.25C70.47,-156.21 70.54,-156.16 70.59,-156.09C70.64,-156.02 70.67,-155.94 70.67,-155.86C70.67,-155.77 70.64,-155.7 70.59,-155.63C70.54,-155.56 70.47,-155.51 70.38,-155.47C70.29,-155.43 70.19,-155.41 70.09,-155.41C69.99,-155.41 69.88,-155.43 69.8,-155.47C69.71,-155.51 69.64,-155.56 69.59,-155.63C69.54,-155.7 69.51,-155.78 69.51,-155.86C69.51,-155.95 69.54,-156.02 69.59,-156.09C69.64,-156.16 69.71,-156.21 69.8,-156.25C69.89,-156.29 69.99,-156.31 70.09,-156.31C70.19,-156.31 70.29,-156.29 70.38,-156.25ZM69.91,-156.11C69.86,-156.09 69.82,-156.05 69.79,-156.01C69.76,-155.97 69.75,-155.92 69.75,-155.86C69.75,-155.8 69.76,-155.75 69.79,-155.71C69.82,-155.67 69.86,-155.63 69.91,-155.61C69.96,-155.59 70.02,-155.58 70.09,-155.58C70.16,-155.58 70.22,-155.59 70.27,-155.61C70.32,-155.63 70.36,-155.67 70.39,-155.71C70.42,-155.75 70.43,-155.8 70.43,-155.86C70.43,-155.92 70.42,-155.97 70.39,-156.01C70.36,-156.05 70.32,-156.09 70.27,-156.11C70.22,-156.13 70.16,-156.14 70.09,-156.14C70.02,-156.14 69.96,-156.13 69.91,-156.11Z" style="fill:white;fill-rule:nonzero;"/>
                </g>
                <g>
                    <path d="M72.99,-156.22C73.09,-156.16 73.15,-156.09 73.18,-155.99L72.94,-155.99C72.91,-156.04 72.88,-156.07 72.82,-156.1C72.77,-156.13 72.7,-156.14 72.63,-156.14C72.57,-156.14 72.51,-156.13 72.46,-156.11C72.41,-156.09 72.37,-156.05 72.35,-156.01C72.32,-155.97 72.31,-155.92 72.31,-155.86C72.31,-155.8 72.32,-155.75 72.35,-155.71C72.38,-155.67 72.42,-155.63 72.46,-155.61C72.51,-155.59 72.56,-155.58 72.63,-155.58C72.7,-155.58 72.77,-155.59 72.82,-155.62C72.87,-155.65 72.91,-155.68 72.94,-155.73L73.18,-155.73C73.15,-155.63 73.09,-155.56 72.99,-155.5C72.9,-155.44 72.78,-155.42 72.63,-155.42C72.52,-155.42 72.42,-155.44 72.34,-155.48C72.26,-155.52 72.19,-155.57 72.14,-155.64C72.09,-155.71 72.07,-155.78 72.07,-155.87C72.07,-155.96 72.09,-156.03 72.14,-156.1C72.19,-156.17 72.25,-156.22 72.34,-156.26C72.42,-156.3 72.52,-156.32 72.63,-156.32C72.78,-156.3 72.89,-156.27 72.99,-156.22Z" style="fill:white;fill-rule:nonzero;"/>
                    <path d="M74.39,-156.25C74.48,-156.21 74.55,-156.16 74.6,-156.09C74.65,-156.02 74.68,-155.94 74.68,-155.86C74.68,-155.77 74.65,-155.7 74.6,-155.63C74.55,-155.56 74.48,-155.51 74.39,-155.47C74.3,-155.43 74.2,-155.41 74.1,-155.41C74,-155.41 73.89,-155.43 73.81,-155.47C73.72,-155.51 73.65,-155.56 73.6,-155.63C73.55,-155.7 73.52,-155.78 73.52,-155.86C73.52,-155.95 73.55,-156.02 73.6,-156.09C73.65,-156.16 73.72,-156.21 73.81,-156.25C73.9,-156.29 74,-156.31 74.1,-156.31C74.2,-156.31 74.3,-156.29 74.39,-156.25ZM73.92,-156.11C73.87,-156.09 73.83,-156.05 73.8,-156.01C73.77,-155.97 73.76,-155.92 73.76,-155.86C73.76,-155.8 73.77,-155.75 73.8,-155.71C73.83,-155.67 73.87,-155.63 73.92,-155.61C73.97,-155.59 74.03,-155.58 74.1,-155.58C74.17,-155.58 74.23,-155.59 74.28,-155.61C74.33,-155.63 74.37,-155.67 74.4,-155.71C74.43,-155.75 74.44,-155.8 74.44,-155.86C74.44,-155.92 74.43,-155.97 74.4,-156.01C74.37,-156.05 74.33,-156.09 74.28,-156.11C74.23,-156.13 74.17,-156.14 74.1,-156.14C74.03,-156.14 73.97,-156.13 73.92,-156.11Z" style="fill:white;fill-rule:nonzero;"/>
                    <path d="M76.03,-155.42L75.8,-155.42L75.28,-156.02L75.28,-155.42L75.05,-155.42L75.05,-156.3L75.28,-156.3L75.8,-155.7L75.8,-156.3L76.03,-156.3L76.03,-155.42Z" style="fill:white;fill-rule:nonzero;"/>
                    <path d="M77.22,-156.29L77.22,-156.15L76.9,-156.15L76.9,-155.41L76.67,-155.41L76.67,-156.15L76.35,-156.15L76.35,-156.29L77.22,-156.29Z" style="fill:white;fill-rule:nonzero;"/>
                    <path d="M78.26,-155.59L77.8,-155.59L77.72,-155.41L77.48,-155.41L77.91,-156.28L78.17,-156.28L78.59,-155.41L78.35,-155.41L78.26,-155.59ZM78.19,-155.73L78.02,-156.1L77.85,-155.73L78.19,-155.73Z" style="fill:white;fill-rule:nonzero;"/>
                    <path d="M79.79,-156.22C79.88,-156.16 79.95,-156.09 79.98,-155.99L79.74,-155.99C79.71,-156.04 79.68,-156.07 79.62,-156.1C79.57,-156.13 79.5,-156.14 79.43,-156.14C79.37,-156.14 79.31,-156.13 79.26,-156.11C79.21,-156.09 79.17,-156.05 79.15,-156.01C79.12,-155.97 79.11,-155.92 79.11,-155.86C79.11,-155.8 79.12,-155.75 79.15,-155.71C79.18,-155.67 79.22,-155.63 79.26,-155.61C79.31,-155.59 79.36,-155.58 79.43,-155.58C79.5,-155.58 79.57,-155.59 79.62,-155.62C79.67,-155.65 79.71,-155.68 79.74,-155.73L79.98,-155.73C79.95,-155.63 79.89,-155.56 79.79,-155.5C79.7,-155.44 79.58,-155.42 79.43,-155.42C79.32,-155.42 79.22,-155.44 79.14,-155.48C79.06,-155.52 78.99,-155.57 78.94,-155.64C78.89,-155.71 78.87,-155.78 78.87,-155.87C78.87,-155.96 78.89,-156.03 78.94,-156.1C78.99,-156.17 79.05,-156.22 79.14,-156.26C79.22,-156.3 79.32,-156.32 79.43,-156.32C79.57,-156.3 79.69,-156.27 79.79,-156.22Z" style="fill:white;fill-rule:nonzero;"/>
                    <path d="M81.13,-156.29L81.13,-156.15L80.81,-156.15L80.81,-155.41L80.58,-155.41L80.58,-156.15L80.26,-156.15L80.26,-156.29L81.13,-156.29Z" style="fill:white;fill-rule:nonzero;"/>
                </g>
            </g>
            <g>
                <g>
                    <circle cx="109.03" cy="-156.38" r="0.26" style="fill:white;"/>
                </g>
                <g>
                    <circle cx="110.22" cy="-156.38" r="0.26" style="fill:white;"/>
                </g>
                <g>
                    <circle cx="107.85" cy="-155.58" r="0.26" style="fill:white;"/>
                </g>
                <g>
                    <circle cx="109.03" cy="-155.58" r="0.26" style="fill:white;"/>
                </g>
                <g>
                    <circle cx="110.22" cy="-155.58" r="0.26" style="fill:white;"/>
                </g>
                <g>
                    <circle cx="107.85" cy="-154.79" r="0.26" style="fill:white;"/>
                </g>
                <g>
                    <circle cx="109.03" cy="-154.79" r="0.26" style="fill:white;"/>
                </g>
            </g>
            <g>
                <path d="M33.86,-130.84L37.67,-130.84C38.58,-130.84 39.39,-130.67 40.09,-130.32C40.79,-129.97 41.33,-129.48 41.72,-128.85C42.11,-128.22 42.3,-127.48 42.3,-126.64C42.3,-125.8 42.11,-125.07 41.72,-124.43C41.33,-123.8 40.79,-123.31 40.09,-122.96C39.39,-122.61 38.59,-122.44 37.67,-122.44L33.86,-122.44L33.86,-130.84ZM37.58,-124.05C38.42,-124.05 39.09,-124.28 39.59,-124.75C40.09,-125.22 40.34,-125.85 40.34,-126.65C40.34,-127.45 40.09,-128.08 39.59,-128.55C39.09,-129.02 38.42,-129.25 37.58,-129.25L35.81,-129.25L35.81,-124.05L37.58,-124.05Z" style="fill:white;fill-rule:nonzero;"/>
                <path d="M50.74,-124.01L50.74,-122.45L44.24,-122.45L44.24,-130.84L50.58,-130.84L50.58,-129.28L46.17,-129.28L46.17,-127.46L50.07,-127.46L50.07,-125.95L46.17,-125.95L46.17,-124.01L50.74,-124.01Z" style="fill:white;fill-rule:nonzero;"/>
                <path d="M53.6,-122.58C52.98,-122.76 52.48,-122.99 52.11,-123.28L52.77,-124.74C53.13,-124.48 53.56,-124.26 54.05,-124.1C54.55,-123.94 55.04,-123.86 55.54,-123.86C56.09,-123.86 56.5,-123.94 56.76,-124.11C57.02,-124.27 57.16,-124.49 57.16,-124.76C57.16,-124.96 57.08,-125.13 56.93,-125.26C56.77,-125.39 56.57,-125.5 56.33,-125.58C56.09,-125.66 55.76,-125.75 55.34,-125.84C54.7,-125.99 54.18,-126.14 53.77,-126.3C53.36,-126.45 53.01,-126.7 52.72,-127.03C52.43,-127.37 52.28,-127.81 52.28,-128.37C52.28,-128.86 52.41,-129.3 52.68,-129.69C52.94,-130.09 53.34,-130.4 53.87,-130.63C54.4,-130.86 55.05,-130.98 55.82,-130.98C56.36,-130.98 56.88,-130.92 57.39,-130.79C57.9,-130.66 58.35,-130.48 58.73,-130.24L58.13,-128.77C57.35,-129.21 56.58,-129.43 55.8,-129.43C55.26,-129.43 54.86,-129.34 54.6,-129.17C54.34,-128.99 54.21,-128.76 54.21,-128.47C54.21,-128.18 54.36,-127.97 54.66,-127.83C54.96,-127.69 55.42,-127.55 56.03,-127.42C56.67,-127.27 57.19,-127.12 57.6,-126.96C58.01,-126.81 58.36,-126.57 58.65,-126.24C58.94,-125.91 59.09,-125.47 59.09,-124.91C59.09,-124.43 58.96,-123.99 58.69,-123.6C58.42,-123.2 58.02,-122.89 57.49,-122.66C56.95,-122.43 56.3,-122.31 55.54,-122.31C54.86,-122.31 54.22,-122.4 53.6,-122.58Z" style="fill:white;fill-rule:nonzero;"/>
                <rect x="60.89" y="-130.84" width="1.94" height="8.39" style="fill:white;fill-rule:nonzero;"/>
                <path d="M70.96,-126.78L72.74,-126.78L72.74,-123.38C72.28,-123.04 71.76,-122.77 71.16,-122.59C70.56,-122.41 69.96,-122.31 69.35,-122.31C68.48,-122.31 67.7,-122.5 67,-122.87C66.3,-123.24 65.76,-123.76 65.36,-124.42C64.96,-125.08 64.77,-125.82 64.77,-126.66C64.77,-127.49 64.97,-128.24 65.36,-128.9C65.76,-129.56 66.3,-130.07 67.01,-130.45C67.71,-130.82 68.5,-131.01 69.38,-131.01C70.12,-131.01 70.78,-130.89 71.38,-130.64C71.98,-130.39 72.48,-130.03 72.89,-129.56L71.64,-128.41C71.04,-129.04 70.32,-129.36 69.47,-129.36C68.93,-129.36 68.46,-129.25 68.04,-129.02C67.62,-128.8 67.3,-128.48 67.07,-128.07C66.84,-127.66 66.72,-127.19 66.72,-126.67C66.72,-126.15 66.84,-125.69 67.07,-125.28C67.3,-124.87 67.62,-124.55 68.04,-124.33C68.45,-124.1 68.92,-123.99 69.45,-123.99C70.01,-123.99 70.51,-124.11 70.96,-124.35L70.96,-126.78Z" style="fill:white;fill-rule:nonzero;"/>
                <path d="M82.72,-130.84L82.72,-122.45L81.13,-122.45L76.95,-127.54L76.95,-122.45L75.03,-122.45L75.03,-130.84L76.64,-130.84L80.81,-125.75L80.81,-130.84L82.72,-130.84Z" style="fill:white;fill-rule:nonzero;"/>
            </g>
            <g>
                <path d="M58.66,-118.14C58.72,-118.07 58.75,-117.97 58.75,-117.86C58.75,-117.71 58.69,-117.59 58.58,-117.51C58.47,-117.43 58.3,-117.39 58.09,-117.39L57.26,-117.39L57.26,-119.13L58.04,-119.13C58.24,-119.13 58.39,-119.09 58.5,-119.01C58.61,-118.93 58.66,-118.82 58.66,-118.68C58.66,-118.59 58.64,-118.51 58.6,-118.44C58.56,-118.37 58.5,-118.32 58.43,-118.29C58.52,-118.26 58.6,-118.21 58.66,-118.14ZM57.5,-118.93L57.5,-118.37L58.01,-118.37C58.14,-118.37 58.24,-118.39 58.3,-118.44C58.37,-118.49 58.4,-118.56 58.4,-118.65C58.4,-118.74 58.37,-118.81 58.3,-118.86C58.23,-118.91 58.13,-118.93 58.01,-118.93L57.5,-118.93ZM58.39,-117.66C58.46,-117.71 58.5,-117.78 58.5,-117.88C58.5,-118.07 58.36,-118.17 58.08,-118.17L57.5,-118.17L57.5,-117.59L58.07,-117.59C58.21,-117.59 58.32,-117.62 58.39,-117.66Z" style="fill:white;fill-rule:nonzero;"/>
                <path d="M61.03,-117.83L60.11,-117.83L59.92,-117.4L59.66,-117.4L60.45,-119.14L60.7,-119.14L61.49,-117.4L61.23,-117.4L61.03,-117.83ZM60.94,-118.02L60.57,-118.87L60.2,-118.02L60.94,-118.02Z" style="fill:white;fill-rule:nonzero;"/>
                <path d="M62.81,-117.49C62.67,-117.57 62.56,-117.67 62.48,-117.81C62.4,-117.94 62.36,-118.1 62.36,-118.27C62.36,-118.44 62.4,-118.59 62.48,-118.73C62.56,-118.86 62.67,-118.97 62.81,-119.05C62.95,-119.13 63.11,-119.17 63.28,-119.17C63.42,-119.17 63.54,-119.15 63.65,-119.1C63.76,-119.05 63.86,-118.99 63.94,-118.9L63.78,-118.74C63.65,-118.88 63.49,-118.95 63.29,-118.95C63.16,-118.95 63.04,-118.92 62.94,-118.86C62.84,-118.8 62.75,-118.72 62.7,-118.62C62.64,-118.52 62.61,-118.4 62.61,-118.28C62.61,-118.15 62.64,-118.04 62.7,-117.94C62.76,-117.84 62.84,-117.76 62.94,-117.7C63.04,-117.64 63.16,-117.61 63.29,-117.61C63.48,-117.61 63.65,-117.68 63.78,-117.82L63.94,-117.66C63.86,-117.57 63.76,-117.5 63.65,-117.46C63.54,-117.41 63.41,-117.39 63.28,-117.39C63.11,-117.37 62.95,-117.41 62.81,-117.49Z" style="fill:white;fill-rule:nonzero;"/>
                <path d="M65.66,-118.16L65.34,-117.84L65.34,-117.39L65.09,-117.39L65.09,-119.13L65.34,-119.13L65.34,-118.16L66.28,-119.13L66.56,-119.13L65.82,-118.35L66.61,-117.4L66.32,-117.4L65.66,-118.16Z" style="fill:white;fill-rule:nonzero;"/>
                <path d="M68.81,-118.27L69.05,-118.27L69.05,-117.59C68.96,-117.52 68.86,-117.46 68.75,-117.43C68.64,-117.39 68.52,-117.37 68.39,-117.37C68.21,-117.37 68.06,-117.41 67.92,-117.49C67.78,-117.57 67.67,-117.67 67.59,-117.81C67.51,-117.94 67.47,-118.1 67.47,-118.27C67.47,-118.44 67.51,-118.59 67.59,-118.73C67.67,-118.87 67.78,-118.97 67.92,-119.05C68.06,-119.13 68.22,-119.16 68.4,-119.16C68.54,-119.16 68.66,-119.14 68.78,-119.09C68.89,-119.04 68.99,-118.98 69.07,-118.89L68.92,-118.74C68.78,-118.87 68.61,-118.94 68.42,-118.94C68.29,-118.94 68.17,-118.91 68.06,-118.85C67.96,-118.79 67.87,-118.71 67.81,-118.61C67.75,-118.51 67.72,-118.39 67.72,-118.27C67.72,-118.14 67.75,-118.03 67.81,-117.93C67.87,-117.83 67.95,-117.75 68.06,-117.69C68.16,-117.63 68.28,-117.6 68.41,-117.6C68.57,-117.6 68.7,-117.64 68.82,-117.71L68.82,-118.27L68.81,-118.27Z" style="fill:white;fill-rule:nonzero;"/>
                <path d="M71.48,-117.39L71.11,-117.92C71.06,-117.92 71.03,-117.91 71,-117.91L70.57,-117.91L70.57,-117.38L70.32,-117.38L70.32,-119.12L71,-119.12C71.22,-119.12 71.4,-119.07 71.53,-118.96C71.66,-118.85 71.72,-118.7 71.72,-118.52C71.72,-118.39 71.69,-118.27 71.62,-118.18C71.55,-118.09 71.46,-118.02 71.34,-117.97L71.75,-117.39L71.48,-117.39ZM71.35,-118.23C71.43,-118.3 71.47,-118.39 71.47,-118.52C71.47,-118.65 71.43,-118.74 71.35,-118.81C71.27,-118.88 71.15,-118.91 70.99,-118.91L70.57,-118.91L70.57,-118.13L70.99,-118.13C71.14,-118.13 71.26,-118.16 71.35,-118.23Z" style="fill:white;fill-rule:nonzero;"/>
                <path d="M73.22,-117.49C73.08,-117.57 72.97,-117.67 72.89,-117.81C72.81,-117.95 72.77,-118.1 72.77,-118.26C72.77,-118.43 72.81,-118.58 72.89,-118.71C72.97,-118.85 73.08,-118.95 73.22,-119.03C73.36,-119.11 73.52,-119.15 73.69,-119.15C73.86,-119.15 74.02,-119.11 74.16,-119.03C74.3,-118.95 74.41,-118.85 74.49,-118.71C74.57,-118.58 74.61,-118.42 74.61,-118.25C74.61,-118.08 74.57,-117.93 74.49,-117.79C74.41,-117.66 74.3,-117.55 74.16,-117.47C74.02,-117.39 73.86,-117.35 73.69,-117.35C73.52,-117.37 73.36,-117.41 73.22,-117.49ZM74.04,-117.68C74.14,-117.74 74.22,-117.82 74.28,-117.92C74.34,-118.02 74.37,-118.14 74.37,-118.26C74.37,-118.39 74.34,-118.5 74.28,-118.6C74.22,-118.7 74.14,-118.78 74.04,-118.84C73.94,-118.9 73.82,-118.93 73.7,-118.93C73.57,-118.93 73.46,-118.9 73.35,-118.84C73.25,-118.78 73.17,-118.7 73.11,-118.6C73.05,-118.5 73.02,-118.38 73.02,-118.26C73.02,-118.13 73.05,-118.02 73.11,-117.92C73.17,-117.82 73.25,-117.74 73.35,-117.68C73.45,-117.62 73.57,-117.59 73.7,-117.59C73.82,-117.59 73.94,-117.62 74.04,-117.68Z" style="fill:white;fill-rule:nonzero;"/>
                <path d="M75.97,-117.57C75.84,-117.7 75.78,-117.89 75.78,-118.14L75.78,-119.13L76.03,-119.13L76.03,-118.15C76.03,-117.78 76.19,-117.59 76.52,-117.59C76.68,-117.59 76.8,-117.64 76.88,-117.73C76.96,-117.82 77.01,-117.96 77.01,-118.15L77.01,-119.13L77.25,-119.13L77.25,-118.14C77.25,-117.89 77.19,-117.7 77.06,-117.57C76.93,-117.44 76.75,-117.37 76.52,-117.37C76.28,-117.37 76.1,-117.44 75.97,-117.57Z" style="fill:white;fill-rule:nonzero;"/>
                <path d="M80.04,-119.13L80.04,-117.39L79.84,-117.39L78.8,-118.68L78.8,-117.39L78.55,-117.39L78.55,-119.13L78.75,-119.13L79.79,-117.84L79.79,-119.13L80.04,-119.13Z" style="fill:white;fill-rule:nonzero;"/>
                <path d="M81.35,-119.13L82.08,-119.13C82.26,-119.13 82.43,-119.09 82.57,-119.02C82.71,-118.95 82.82,-118.85 82.9,-118.71C82.98,-118.58 83.02,-118.43 83.02,-118.26C83.02,-118.09 82.98,-117.94 82.9,-117.81C82.82,-117.68 82.71,-117.58 82.57,-117.5C82.43,-117.43 82.26,-117.39 82.08,-117.39L81.35,-117.39L81.35,-119.13ZM82.07,-117.61C82.21,-117.61 82.33,-117.64 82.44,-117.69C82.55,-117.74 82.63,-117.82 82.69,-117.92C82.75,-118.02 82.78,-118.13 82.78,-118.26C82.78,-118.39 82.75,-118.5 82.69,-118.6C82.63,-118.7 82.55,-118.77 82.44,-118.83C82.33,-118.88 82.21,-118.91 82.07,-118.91L81.6,-118.91L81.6,-117.61L82.07,-117.61Z" style="fill:white;fill-rule:nonzero;"/>
            </g>
            <g>
                <g>
                    <g>
                        <path d="M8.34,-154.24C7.47,-154.24 6.76,-154.95 6.76,-155.81C6.76,-156.68 7.47,-157.38 8.34,-157.38C8.93,-157.38 9.44,-157.06 9.71,-156.58C9.78,-156.61 9.87,-156.64 9.95,-156.64C9.65,-157.22 9.04,-157.62 8.34,-157.62C7.34,-157.62 6.52,-156.81 6.52,-155.81C6.52,-154.81 7.33,-154 8.34,-154C9.04,-154 9.65,-154.4 9.95,-154.99C9.87,-154.99 9.78,-155.02 9.71,-155.05C9.44,-154.57 8.92,-154.24 8.34,-154.24Z" style="fill:white;fill-rule:nonzero;"/>
                    </g>
                </g>
                <g>
                    <g>
                        <path d="M8,-156.44L8.26,-156.44L8.26,-155.53L8.82,-155.53L8.82,-155.32L8,-155.32L8,-156.44Z" style="fill:white;fill-rule:nonzero;"/>
                    </g>
                    <g>
                        <path d="M9.17,-155.37C9.08,-155.42 9,-155.49 8.95,-155.58C8.9,-155.67 8.87,-155.77 8.87,-155.88C8.87,-155.99 8.9,-156.09 8.95,-156.18C9,-156.27 9.08,-156.34 9.17,-156.39C9.26,-156.44 9.37,-156.47 9.48,-156.47C9.6,-156.47 9.7,-156.44 9.79,-156.39C9.88,-156.34 9.96,-156.27 10.01,-156.18C10.06,-156.09 10.09,-155.99 10.09,-155.88C10.09,-155.77 10.06,-155.67 10.01,-155.58C9.96,-155.49 9.88,-155.42 9.79,-155.37C9.7,-155.32 9.59,-155.29 9.48,-155.29C9.37,-155.3 9.27,-155.32 9.17,-155.37ZM9.67,-155.56C9.72,-155.59 9.77,-155.63 9.8,-155.69C9.83,-155.74 9.85,-155.81 9.85,-155.88C9.85,-155.95 9.83,-156.01 9.8,-156.07C9.77,-156.12 9.73,-156.17 9.67,-156.2C9.62,-156.23 9.56,-156.25 9.49,-156.25C9.42,-156.25 9.36,-156.23 9.31,-156.2C9.26,-156.17 9.21,-156.13 9.18,-156.07C9.15,-156.02 9.13,-155.95 9.13,-155.88C9.13,-155.81 9.15,-155.75 9.18,-155.69C9.21,-155.64 9.25,-155.59 9.31,-155.56C9.36,-155.53 9.42,-155.51 9.49,-155.51C9.55,-155.52 9.61,-155.53 9.67,-155.56Z" style="fill:white;fill-rule:nonzero;"/>
                    </g>
                    <g>
                        <path d="M11.05,-155.89L11.29,-155.89L11.29,-155.44C11.23,-155.39 11.16,-155.36 11.08,-155.33C11,-155.31 10.92,-155.29 10.84,-155.29C10.72,-155.29 10.62,-155.31 10.53,-155.36C10.44,-155.41 10.36,-155.48 10.31,-155.57C10.26,-155.66 10.23,-155.76 10.23,-155.87C10.23,-155.98 10.26,-156.08 10.31,-156.17C10.36,-156.26 10.44,-156.33 10.53,-156.38C10.62,-156.43 10.73,-156.45 10.85,-156.45C10.95,-156.45 11.04,-156.43 11.12,-156.4C11.2,-156.37 11.27,-156.32 11.32,-156.26L11.15,-156.11C11.07,-156.19 10.97,-156.24 10.86,-156.24C10.79,-156.24 10.73,-156.23 10.67,-156.2C10.61,-156.17 10.57,-156.13 10.54,-156.07C10.51,-156.02 10.49,-155.95 10.49,-155.88C10.49,-155.81 10.51,-155.75 10.54,-155.69C10.57,-155.64 10.61,-155.59 10.67,-155.56C10.73,-155.53 10.79,-155.51 10.86,-155.51C10.93,-155.51 11,-155.53 11.06,-155.56L11.06,-155.89L11.05,-155.89Z" style="fill:white;fill-rule:nonzero;"/>
                    </g>
                    <g>
                        <path d="M11.75,-155.37C11.66,-155.42 11.58,-155.49 11.53,-155.58C11.48,-155.67 11.45,-155.77 11.45,-155.88C11.45,-155.99 11.48,-156.09 11.53,-156.18C11.58,-156.27 11.66,-156.34 11.75,-156.39C11.84,-156.44 11.95,-156.47 12.06,-156.47C12.18,-156.47 12.28,-156.44 12.37,-156.39C12.46,-156.34 12.54,-156.27 12.59,-156.18C12.64,-156.09 12.67,-155.99 12.67,-155.88C12.67,-155.77 12.64,-155.67 12.59,-155.58C12.54,-155.49 12.46,-155.42 12.37,-155.37C12.28,-155.32 12.17,-155.29 12.06,-155.29C11.95,-155.3 11.85,-155.32 11.75,-155.37ZM12.25,-155.56C12.3,-155.59 12.35,-155.63 12.38,-155.69C12.41,-155.74 12.43,-155.81 12.43,-155.88C12.43,-155.95 12.41,-156.01 12.38,-156.07C12.35,-156.12 12.31,-156.17 12.25,-156.2C12.2,-156.23 12.14,-156.25 12.07,-156.25C12,-156.25 11.94,-156.23 11.89,-156.2C11.84,-156.17 11.79,-156.13 11.76,-156.07C11.73,-156.02 11.71,-155.95 11.71,-155.88C11.71,-155.81 11.73,-155.75 11.76,-155.69C11.79,-155.64 11.83,-155.59 11.89,-155.56C11.94,-155.53 12,-155.51 12.07,-155.51C12.13,-155.52 12.19,-155.53 12.25,-155.56Z" style="fill:white;fill-rule:nonzero;"/>
                    </g>
                </g>
            </g>
            <g>
                <g>
                    <path d="M53.6,-97.92L52.26,-97.15L53.6,-96.38L53.6,-96.99L55.29,-96.99L55.29,-97.3L53.6,-97.3L53.6,-97.92Z" style="fill:white;fill-rule:nonzero;"/>
                </g>
                <g>
                    <path d="M64.8,-97.15L63.47,-97.92L63.47,-97.3L61.77,-97.3L61.77,-96.99L63.47,-96.99L63.47,-96.38L64.8,-97.15Z" style="fill:white;fill-rule:nonzero;"/>
                </g>
            </g>
            <g>
                <g>
                    <rect x="33.7" y="-133.91" width="16.92" height="0.63" style="fill:white;"/>
                </g>
            </g>
        </g>
    </g>
    <defs>
        <radialGradient id="_Radial1" cx="0" cy="0" r="1" gradientUnits="userSpaceOnUse" gradientTransform="matrix(67.5257,-80.3104,80.3104,67.5257,58.5,-123.363)"><stop offset="0" style="stop-color:rgb(162,144,233);stop-opacity:1"/><stop offset="0.43" style="stop-color:rgb(112,108,240);stop-opacity:1"/><stop offset="1" style="stop-color:rgb(0,28,255);stop-opacity:1"/></radialGradient>
        <linearGradient id="_Linear2" x1="0" y1="0" x2="1" y2="0" gradientUnits="userSpaceOnUse" gradientTransform="matrix(-105.789,-0.654823,0.654823,-105.789,120.356,43.3595)"><stop offset="0" style="stop-color:rgb(162,144,233);stop-opacity:1"/><stop offset="1" style="stop-color:rgb(0,28,255);stop-opacity:1"/></linearGradient>
        <linearGradient id="_Linear3" x1="0" y1="0" x2="1" y2="0" gradientUnits="userSpaceOnUse" gradientTransform="matrix(66.986,51.6281,-51.6281,66.986,-19.528,-9.43413)"><stop offset="0" style="stop-color:rgb(162,144,233);stop-opacity:1"/><stop offset="1" style="stop-color:rgb(0,28,255);stop-opacity:1"/></linearGradient>
    </defs>
</svg>
